Young Justice (TV Series 2010)


IMDB:-  
http://www.imdb.com/title/tt1641384/

Screenshots:-  
http://bayimg.com/hAoHeAadF 
http://bayimg.com/HaOhGAAdF


Plot Summary:-
Teenage superheroes strive to prove themselves as members of the Justice League. 

Details:-
Video
ID                                       : 1
Format                                   : AVC
Format/Info                              : Advanced Video Codec
Format profile                           : High@L3.1
Format settings, CABAC                   : Yes
Format settings, ReFrames                : 8 frames
Codec ID                                 : V_MPEG4/ISO/AVC
Duration                                 : 21mn 45s
Bit rate                                 : 300 Kbps
Width                                    : 848 pixels
Height                                   : 480 pixels
Display aspect ratio                     : 16:9
Frame rate mode                          : Variable
Frame rate                               : 23.976 fps
Color space                              : YUV
Chroma subsampling                       : 4:2:0
Bit depth                                : 8 bits
Scan type                                : Progressive
Bits/(Pixel*Frame)                       : 0.031
Stream size                              : 46.2 MiB (84%)
Writing library                          : x264 core 115
Language                                 : English
Default                                  : Yes
Forced                                   : No
Color primaries                          : BT.709-5, BT.1361, IEC 61966-2-4, SMPTE RP177
Transfer characteristics                 : BT.709-5, BT.1361
Matrix coefficients                      : BT.709-5, BT.1361, IEC 61966-2-4 709, SMPTE RP177

Audio
ID                                       : 2
Format                                   : Vorbis
Format settings, Floor                   : 1
Codec ID                                 : A_VORBIS
Duration                                 : 21mn 45s
Bit rate mode                            : Variable
Bit rate                                 : 48.0 Kbps
Channel(s)                               : 2 channels
Sampling rate                            : 48.0 KHz
Compression mode                         : Lossy
Stream size                              : 7.47 MiB (14%)
Writing library                          : aoTuV Beta 5 (UTC 2006-10-24)
Language                                 : English
Default                                  : Yes
Forced                                   : No
Writing application                      : HandBrake




Hope this torrent helps you out!!Enjoy!!